<svg xmlns="http://www.w3.org/2000/svg" xmlns:xlink="http://www.w3.org/1999/xlink" width="1024" zoomAndPan="magnify" viewBox="0 0 768 767.999994" height="1024" preserveAspectRatio="xMidYMid meet" version="1.0"><defs><clipPath id="ce28270470"><path d="M 116 122 L 314 122 L 314 607.800781 L 116 607.800781 Z M 116 122 " clip-rule="nonzero"/></clipPath><clipPath id="c9da7eb8ac"><path d="M 446 115 L 652 115 L 652 607.800781 L 446 607.800781 Z M 446 115 " clip-rule="nonzero"/></clipPath><clipPath id="8e1b17a664"><path d="M 439 76.800781 L 471 76.800781 L 471 222 L 439 222 Z M 439 76.800781 " clip-rule="nonzero"/></clipPath><clipPath id="19744fdfc5"><path d="M 294 76.800781 L 326 76.800781 L 326 220 L 294 220 Z M 294 76.800781 " clip-rule="nonzero"/></clipPath><clipPath id="bda0e60254"><path d="M 423 607.488281 L 437 607.488281 L 437 618 L 423 618 Z M 423 607.488281 " clip-rule="nonzero"/></clipPath><clipPath id="1fc34e651d"><path d="M 84 654 L 678 654 L 678 691.488281 L 84 691.488281 Z M 84 654 " clip-rule="nonzero"/></clipPath></defs><g clip-path="url(#ce28270470)"><path fill="#f47c7c" d="M 307.613281 122.5625 C 303.371094 121.570312 299.125 124.195312 298.128906 128.441406 L 284.519531 186.398438 L 246.023438 338.652344 C 226.238281 416.894531 181.539062 488.09375 119.789062 539.972656 C 116.5 542.734375 116.023438 547.613281 118.714844 550.957031 C 121.492188 554.402344 126.558594 554.894531 129.945312 552.050781 C 138.015625 545.273438 145.796875 538.199219 153.289062 530.839844 L 153.289062 599.410156 C 153.289062 603.730469 156.617188 607.5 160.933594 607.628906 C 165.402344 607.761719 169.066406 604.179688 169.066406 599.738281 L 169.066406 514.417969 C 177.289062 505.367188 185.097656 495.945312 192.46875 486.164062 L 192.46875 599.410156 C 192.46875 603.730469 195.796875 607.5 200.117188 607.628906 C 204.582031 607.761719 208.246094 604.179688 208.246094 599.738281 L 208.246094 463.667969 C 208.820312 462.789062 209.40625 461.921875 209.972656 461.039062 C 217.917969 448.640625 225.140625 435.855469 231.648438 422.734375 L 231.648438 599.410156 C 231.648438 603.730469 234.980469 607.496094 239.296875 607.625 C 243.765625 607.761719 247.429688 604.179688 247.429688 599.738281 L 247.429688 386.597656 C 252.878906 372.21875 257.527344 357.515625 261.320312 342.523438 L 299.832031 190.203125 C 299.84375 190.160156 299.855469 190.117188 299.863281 190.070312 L 313.492188 132.046875 C 314.488281 127.804688 311.855469 123.558594 307.613281 122.5625 Z M 307.613281 122.5625 " fill-opacity="1" fill-rule="nonzero"/></g><g clip-path="url(#c9da7eb8ac)"><path fill="#f47c7c" d="M 648.28125 544.882812 C 583.445312 492.632812 536.496094 419.390625 516.082031 338.652344 L 477.585938 186.410156 L 461.875 121.421875 C 460.847656 117.1875 456.585938 114.585938 452.351562 115.605469 C 448.117188 116.628906 445.511719 120.894531 446.539062 125.128906 L 462.269531 190.203125 L 500.785156 342.523438 C 504.574219 357.515625 509.222656 372.21875 514.675781 386.597656 L 514.675781 599.742188 C 514.675781 604.101562 518.207031 607.632812 522.5625 607.632812 C 526.921875 607.632812 530.453125 604.101562 530.453125 599.742188 L 530.453125 422.734375 C 536.964844 435.855469 544.1875 448.640625 552.132812 461.039062 C 552.699219 461.921875 553.28125 462.789062 553.855469 463.667969 L 553.855469 599.738281 C 553.855469 604.097656 557.386719 607.628906 561.746094 607.628906 C 566.101562 607.628906 569.632812 604.097656 569.632812 599.738281 L 569.632812 486.164062 C 577.007812 495.945312 584.816406 505.367188 593.035156 514.417969 L 593.035156 599.738281 C 593.035156 604.097656 596.570312 607.628906 600.925781 607.628906 C 605.28125 607.628906 608.816406 604.097656 608.816406 599.738281 L 608.816406 530.839844 C 618.214844 540.074219 628.074219 548.863281 638.382812 557.171875 C 639.839844 558.34375 641.589844 558.917969 643.328125 558.917969 C 645.632812 558.917969 647.917969 557.914062 649.476562 555.976562 C 652.207031 552.585938 651.675781 547.617188 648.28125 544.882812 Z M 648.28125 544.882812 " fill-opacity="1" fill-rule="nonzero"/></g><path fill="#d83131" d="M 436.664062 220.308594 L 304.050781 220.308594 L 304.050781 269.347656 L 328.257812 267.253906 L 330.277344 267.253906 L 351.039062 252.378906 L 413.882812 252.378906 L 436.035156 268.253906 L 436.664062 268.253906 L 459.582031 269.347656 L 459.582031 220.308594 Z M 436.664062 220.308594 " fill-opacity="1" fill-rule="nonzero"/><path fill="#d83131" d="M 439.90625 101.359375 L 304.050781 101.359375 L 304.050781 155.050781 L 325.015625 152.082031 L 351.039062 133.4375 L 413.882812 133.4375 L 439.90625 152.082031 L 459.582031 155.050781 L 459.582031 101.359375 Z M 439.90625 101.359375 " fill-opacity="1" fill-rule="nonzero"/><path fill="#d83131" d="M 432.183594 337.03125 L 315.148438 337.03125 L 315.148438 385.171875 L 332.738281 382.21875 L 351.039062 369.097656 L 413.882812 369.097656 L 432.183594 382.21875 L 455.269531 383.75 L 455.269531 337.03125 Z M 432.183594 337.03125 " fill-opacity="1" fill-rule="nonzero"/><path fill="#d83131" d="M 428.09375 468.34375 L 307.542969 468.34375 L 307.542969 513.914062 L 336.828125 510.609375 L 351.039062 500.414062 L 413.882812 500.414062 L 428.09375 510.609375 L 455.269531 515.296875 L 455.269531 468.34375 Z M 428.09375 468.34375 " fill-opacity="1" fill-rule="nonzero"/><g clip-path="url(#8e1b17a664)"><path fill="#e94444" d="M 470.628906 84.628906 L 470.628906 221.929688 L 439.90625 221.929688 L 439.90625 84.628906 C 439.90625 80.273438 443.4375 76.75 447.785156 76.75 L 462.753906 76.75 C 467.105469 76.75 470.628906 80.273438 470.628906 84.628906 Z M 470.628906 84.628906 " fill-opacity="1" fill-rule="nonzero"/></g><path fill="#d83131" d="M 439.90625 170.375 L 470.628906 170.375 L 470.628906 221.929688 L 439.90625 221.929688 Z M 439.90625 170.375 " fill-opacity="1" fill-rule="nonzero"/><path fill="#e94444" d="M 473.871094 190.746094 L 473.871094 356.125 L 436.664062 356.125 L 436.664062 190.746094 C 436.664062 189.378906 437.78125 188.261719 439.148438 188.261719 L 471.386719 188.261719 C 472.765625 188.261719 473.871094 189.378906 473.871094 190.746094 Z M 473.871094 190.746094 " fill-opacity="1" fill-rule="nonzero"/><path fill="#d83131" d="M 436.664062 295.105469 L 473.871094 295.105469 L 473.871094 356.125 L 436.664062 356.125 Z M 436.664062 295.105469 " fill-opacity="1" fill-rule="nonzero"/><path fill="#e94444" d="M 436.664062 312.992188 L 475.132812 312.992188 C 476.910156 312.992188 478.351562 314.433594 478.351562 316.210938 L 478.351562 489.09375 L 432.183594 489.09375 L 432.183594 316.210938 C 432.183594 314.433594 433.625 312.992188 435.414062 312.992188 Z M 436.664062 312.992188 " fill-opacity="1" fill-rule="nonzero"/><path fill="#d83131" d="M 476.816406 432.277344 L 433.730469 432.277344 C 433.210938 432.277344 432.695312 432.300781 432.183594 432.335938 L 432.183594 489.09375 L 478.351562 489.09375 L 478.351562 432.335938 C 477.84375 432.300781 477.332031 432.277344 476.816406 432.277344 Z M 476.816406 432.277344 " fill-opacity="1" fill-rule="nonzero"/><path fill="#e94444" d="M 482.445312 455.792969 L 482.445312 594 C 482.445312 597.171875 479.875 599.742188 476.703125 599.742188 L 433.832031 599.742188 C 430.660156 599.742188 428.089844 597.171875 428.089844 594 L 428.089844 455.804688 C 428.089844 452.691406 430.617188 450.164062 433.730469 450.164062 L 476.816406 450.164062 C 479.925781 450.164062 482.445312 452.683594 482.445312 455.792969 Z M 482.445312 455.792969 " fill-opacity="1" fill-rule="nonzero"/><g clip-path="url(#19744fdfc5)"><path fill="#e94444" d="M 325.015625 84.628906 L 325.015625 219.824219 L 294.289062 219.824219 L 294.289062 84.628906 C 294.289062 80.273438 297.816406 76.75 302.167969 76.75 L 317.136719 76.75 C 321.480469 76.75 325.015625 80.273438 325.015625 84.628906 Z M 325.015625 84.628906 " fill-opacity="1" fill-rule="nonzero"/></g><path fill="#d83131" d="M 294.289062 170.375 L 325.015625 170.375 L 325.015625 219.824219 L 294.289062 219.824219 Z M 294.289062 170.375 " fill-opacity="1" fill-rule="nonzero"/><path fill="#e94444" d="M 328.257812 190.746094 L 328.257812 351.917969 L 291.050781 351.917969 L 291.050781 190.746094 C 291.050781 189.378906 292.15625 188.261719 293.535156 188.261719 L 325.773438 188.261719 C 327.140625 188.261719 328.257812 189.378906 328.257812 190.746094 Z M 328.257812 190.746094 " fill-opacity="1" fill-rule="nonzero"/><path fill="#d83131" d="M 291.050781 295.105469 L 328.257812 295.105469 L 328.257812 351.917969 L 291.050781 351.917969 Z M 291.050781 295.105469 " fill-opacity="1" fill-rule="nonzero"/><path fill="#e94444" d="M 332.738281 316.210938 L 332.738281 486.988281 L 286.570312 486.988281 L 286.570312 316.210938 C 286.570312 314.433594 288.011719 312.992188 289.789062 312.992188 L 329.507812 312.992188 C 331.296875 312.992188 332.738281 314.433594 332.738281 316.210938 Z M 332.738281 316.210938 " fill-opacity="1" fill-rule="nonzero"/><path fill="#d83131" d="M 332.738281 432.335938 C 332.226562 432.300781 331.710938 432.277344 331.191406 432.277344 L 288.105469 432.277344 C 287.589844 432.277344 287.078125 432.300781 286.570312 432.335938 L 286.570312 486.988281 L 332.738281 486.988281 Z M 332.738281 432.335938 " fill-opacity="1" fill-rule="nonzero"/><path fill="#e94444" d="M 336.828125 455.804688 L 336.828125 594.214844 C 336.828125 597.269531 334.355469 599.742188 331.304688 599.742188 L 288.003906 599.742188 C 284.953125 599.742188 282.476562 597.269531 282.476562 594.214844 L 282.476562 455.792969 C 282.476562 452.683594 284.996094 450.164062 288.105469 450.164062 L 331.191406 450.164062 C 334.304688 450.164062 336.828125 452.691406 336.828125 455.804688 Z M 336.828125 455.804688 " fill-opacity="1" fill-rule="nonzero"/><g clip-path="url(#bda0e60254)"><path fill="#3bb4d7" d="M 430.128906 607.722656 C 431.535156 607.390625 433.089844 607.394531 434.46875 607.835938 C 436.023438 608.929688 437.113281 610.625 435.902344 612.429688 C 434.0625 615.492188 429.289062 616.734375 426.027344 617.507812 C 424.320312 618.050781 422.871094 616.550781 423.058594 614.875 C 423.226562 611.253906 426.976562 608.667969 430.128906 607.722656 Z M 430.128906 607.722656 " fill-opacity="1" fill-rule="nonzero"/></g><path fill="#3bb4d7" d="M 690.757812 623.894531 C 690.496094 625.808594 690.539062 627.527344 689.222656 629.09375 C 686.242188 632.894531 682.421875 636.089844 678.941406 639.433594 C 671.507812 646.523438 663.625 653.078125 655.15625 658.894531 C 645.148438 665.597656 632.988281 669.238281 621.550781 672.863281 C 609.757812 676.421875 597.117188 675.328125 585.984375 670.109375 C 582.597656 668.523438 579.550781 666.539062 576.015625 665.246094 C 573.871094 664.445312 571.835938 663.539062 570.113281 661.988281 C 566.199219 658.488281 562.75 654.527344 559.714844 650.238281 C 559.265625 649.683594 558.460938 648.480469 557.671875 649.203125 C 554.308594 651.957031 551.191406 654.964844 547.535156 657.359375 C 540.652344 662.222656 533.164062 664.894531 525.296875 667.648438 C 516.621094 670.800781 507.695312 672.503906 498.460938 672.570312 C 493.285156 672.90625 488.195312 672.214844 483.125 671.246094 C 478.902344 670.382812 475.066406 668.644531 470.914062 667.4375 C 465.652344 665.933594 461.335938 661.542969 456.984375 658.234375 C 450.113281 652.886719 446.046875 645.941406 441.054688 638.964844 C 435.457031 642.894531 430.207031 647.3125 424.5625 651.183594 C 419.347656 654.695312 413.554688 656.980469 407.941406 659.941406 C 401.058594 663.574219 393.976562 667.605469 386.34375 669.375 C 379.125 671.082031 371.3125 672.066406 363.957031 670.808594 C 355.175781 669.363281 345.867188 667.101562 338.132812 662.554688 C 331.285156 658.582031 326.285156 653.148438 319.863281 648.195312 C 316.375 645.554688 313.324219 642.46875 310.355469 639.265625 C 305.226562 643.957031 299.949219 647.8125 293.941406 651.308594 C 284.644531 656.894531 274.765625 662.621094 264.382812 665.886719 C 256.015625 668.339844 247.417969 670.273438 238.789062 671.523438 C 235.460938 672.019531 232.515625 673.039062 229.1875 672.878906 C 215.875 671.800781 204.371094 666.433594 193.105469 659.59375 C 185.757812 654.886719 179.78125 647.375 174.777344 640.316406 C 171.90625 642.203125 169.175781 644.214844 166.507812 646.386719 C 161.976562 650.027344 157.09375 653.113281 152.046875 655.972656 C 145.300781 659.75 138.007812 662.335938 130.789062 665.011719 C 124.023438 667.535156 117.148438 669.746094 110.191406 671.683594 C 106.5 672.757812 102.769531 672.738281 99.167969 674.128906 C 93.703125 676.183594 86.898438 677.714844 81.226562 675.746094 C 79.679688 674.992188 76.566406 673.558594 77.167969 671.390625 C 77.292969 669.367188 80.332031 669.335938 81.8125 669.066406 C 87.273438 668.710938 92.476562 667.292969 97.8125 666.214844 C 99.800781 665.820312 101.65625 665.089844 103.5 664.269531 C 106.820312 662.800781 110.257812 661.910156 113.675781 660.714844 C 119.085938 658.816406 124.308594 656.5625 129.578125 654.308594 C 134.589844 652.15625 139.730469 650.183594 144.417969 647.460938 C 149 644.851562 153.214844 641.757812 157.363281 638.515625 C 160.417969 636.097656 163.445312 634.027344 166.148438 631.195312 C 167.453125 629.882812 168.773438 628.273438 170.351562 627.308594 C 173.113281 625.59375 177.222656 626.777344 178.648438 629.710938 C 179.863281 631.960938 180.796875 634.238281 182.542969 636.171875 C 185.65625 639.664062 189.089844 642.929688 192.597656 646.039062 C 197.550781 650.507812 204.179688 653.4375 210.285156 656 C 215.367188 658.152344 220.625 659.765625 226.136719 660.292969 C 231.570312 660.734375 236.027344 662.488281 241.40625 661.308594 C 247.589844 659.9375 253.644531 657.882812 259.667969 655.933594 C 270.710938 652.09375 281.285156 645.15625 290.988281 638.6875 C 295.644531 635.601562 299.855469 631.976562 303.855469 628.089844 C 305.851562 626.253906 308.148438 623.953125 311.097656 624.351562 C 314.519531 625.019531 316.691406 628.386719 318.898438 630.824219 C 323.714844 636.605469 329.605469 639.996094 335.273438 644.785156 C 339.480469 648.304688 343.402344 651.753906 348.585938 653.792969 C 355.53125 656.503906 363 658.25 370.46875 658.40625 C 375.980469 658.625 381.765625 657 386.964844 655.234375 C 393.515625 652.914062 399.382812 648.875 405.828125 645.890625 C 410.667969 643.648438 415.3125 641.074219 419.53125 637.796875 C 423.070312 635 426.550781 632.132812 430.15625 629.425781 C 433.609375 626.855469 436.972656 624.152344 441.417969 623.707031 C 444.179688 623.484375 446.328125 625.058594 448.007812 627.082031 C 451.519531 631.410156 454.183594 636.445312 457.757812 640.746094 C 460.410156 643.917969 463.257812 647.105469 466.484375 649.695312 C 469.828125 652.472656 473.289062 654.65625 476.070312 657.851562 C 477.542969 659.390625 478.6875 661.289062 480.921875 661.710938 C 485.117188 662.511719 489.539062 662.960938 493.8125 662.839844 C 501.554688 662.738281 509.628906 661.839844 516.929688 659.128906 C 527.84375 655.382812 538.179688 651.261719 546.8125 643.3125 C 549.691406 640.726562 551.824219 637.492188 554.5625 634.792969 C 556.65625 632.613281 560.28125 632.902344 562.710938 634.300781 C 565.476562 635.839844 566.601562 639.40625 568.164062 642.015625 C 570.734375 646.632812 574.636719 649.472656 578.152344 653.300781 C 579.835938 655.019531 581.296875 657.082031 583.175781 658.570312 C 590.957031 663.785156 599.980469 665.164062 609.183594 664.546875 C 615.4375 663.96875 621.707031 661.433594 627.613281 659.34375 C 635.667969 656.496094 643.324219 653.039062 650.28125 648.003906 C 654.671875 644.796875 658.9375 641.476562 663.703125 638.808594 C 671.089844 634.695312 677.695312 629.527344 684.699219 624.84375 C 686.820312 623.398438 688.304688 623.417969 690.757812 623.894531 Z M 690.757812 623.894531 " fill-opacity="1" fill-rule="nonzero"/><path fill="#3bb4d7" d="M 468.519531 625.40625 C 471.796875 628.253906 474.71875 631.523438 477.957031 634.425781 C 481.984375 638.410156 487.203125 641.164062 492.71875 642.402344 C 496.429688 643.171875 500.152344 643.117188 503.863281 642.382812 C 508.691406 641.453125 514.191406 641.257812 518.664062 639.304688 C 521.136719 638.277344 523.328125 636.640625 525.808594 635.644531 C 526.761719 635.234375 527.617188 635.480469 528.585938 635.671875 C 529.199219 638.308594 527.5 640 525.785156 641.691406 C 521.523438 645.542969 515.5625 647.929688 510.246094 649.917969 C 506.421875 651.257812 502.90625 652.789062 498.777344 652.578125 C 488.246094 652.628906 477.589844 647.621094 471.261719 639.109375 C 468.65625 635.742188 465.394531 632.25 463.996094 628.1875 C 463.648438 626.988281 463.269531 625.601562 464.433594 624.71875 C 465.605469 623.316406 467.421875 624.550781 468.519531 625.40625 Z M 468.519531 625.40625 " fill-opacity="1" fill-rule="nonzero"/><path fill="#3bb4d7" d="M 577.277344 630.945312 C 578.007812 631.753906 578.625 632.6875 579.257812 633.566406 C 577.039062 633.523438 574.882812 633.117188 572.710938 632.691406 C 572.917969 631.988281 573.132812 631.28125 573.351562 630.578125 C 574.601562 630.589844 576.121094 630.414062 577.277344 630.945312 Z M 577.277344 630.945312 " fill-opacity="1" fill-rule="nonzero"/><path fill="#3bb4d7" d="M 407.21875 624.667969 C 408.660156 626.09375 407.6875 628.355469 406.652344 629.726562 C 403.046875 634.511719 398.113281 638.144531 392.621094 640.484375 C 384.6875 644.21875 376.363281 648.652344 367.308594 647.878906 C 362.429688 647.511719 356.914062 647.785156 352.292969 646.117188 C 346.460938 644.234375 341.660156 639.058594 338.570312 633.917969 C 340.367188 633.867188 342.074219 633.59375 343.761719 634.382812 C 347.5 636.035156 350.21875 638.476562 354.492188 638.9375 C 360.21875 639.546875 366.128906 639.347656 371.832031 638.503906 C 378.417969 637.441406 383.03125 633.917969 388.90625 631.023438 C 392.582031 629.214844 395.445312 626.367188 398.878906 624.214844 C 401.328125 622.625 405.109375 622.378906 407.21875 624.667969 Z M 407.21875 624.667969 " fill-opacity="1" fill-rule="nonzero"/><path fill="#3bb4d7" d="M 638.769531 636.292969 C 640.683594 636.285156 643.953125 637.496094 644 639.789062 C 643.375 642.230469 640.988281 643.535156 638.832031 644.414062 C 634.996094 645.902344 631.070312 647.074219 627.332031 648.820312 C 623.214844 650.582031 619.664062 652.9375 615.015625 652.660156 C 606.957031 652.148438 599.203125 652.6875 591.664062 649.410156 C 588.996094 648.222656 587.691406 646.078125 586.65625 643.453125 C 591.636719 642.777344 596.417969 644.070312 601.40625 643.617188 C 604.628906 643.320312 607.832031 642.839844 611.074219 642.746094 C 614.226562 642.636719 617.148438 642.074219 620.078125 640.898438 C 626.003906 638.480469 632.339844 636.554688 638.769531 636.292969 Z M 638.769531 636.292969 " fill-opacity="1" fill-rule="nonzero"/><path fill="#3bb4d7" d="M 200.027344 631.003906 C 202.664062 632.503906 204.6875 634.867188 207.519531 636.175781 C 211.398438 638.101562 216.078125 638.355469 219.808594 640.464844 C 221.902344 642.316406 223.285156 645.285156 224.164062 647.90625 C 223.351562 650.226562 219.605469 650.074219 217.605469 650.257812 C 212.488281 650.570312 208.824219 647.914062 204.421875 645.761719 C 200.871094 644.015625 198.441406 640.949219 196.753906 637.433594 C 195.964844 635.789062 195.898438 633.882812 196.4375 632.152344 C 197.242188 630.769531 198.574219 630.332031 200.027344 631.003906 Z M 200.027344 631.003906 " fill-opacity="1" fill-rule="nonzero"/><g clip-path="url(#1fc34e651d)"><path fill="#3bb4d7" d="M 670.492188 660.648438 C 672.867188 660.773438 675.027344 661.527344 677.171875 662.484375 C 675.898438 663.191406 674.804688 664.003906 673.300781 664.15625 C 667.5625 665.003906 662.304688 664.449219 656.734375 666.730469 C 651.507812 668.78125 648.625 672.800781 644.027344 676.082031 C 639.839844 679.339844 635.34375 681.621094 630.3125 683.261719 C 623.824219 685.800781 617.054688 687.414062 610.082031 687.773438 C 604.953125 687.820312 599.894531 687.363281 594.832031 686.535156 C 587.171875 685.664062 579.3125 686.019531 571.683594 684.894531 C 564.765625 683.421875 558.089844 680.398438 551.703125 677.410156 C 547.542969 680.605469 544.882812 684.207031 540.042969 686.300781 C 534.96875 688.648438 529.648438 688.40625 524.25 687.550781 C 521.59375 687.101562 518.859375 685.851562 516.167969 685.914062 C 513.246094 686.390625 510.492188 687.675781 507.574219 688.234375 C 498.996094 689.898438 490.097656 689.027344 481.386719 688.613281 C 476.417969 688.394531 472.046875 686.828125 467.394531 685.238281 C 458.695312 682.460938 450.875 675.613281 443.460938 670.378906 C 442.570312 669.820312 441.671875 669.265625 440.601562 669.140625 C 438.804688 669.667969 437.179688 671.035156 435.660156 672.101562 C 430.675781 675.847656 425.238281 678.820312 419.558594 681.363281 C 413.992188 683.839844 409.003906 686.65625 402.984375 687.785156 C 392.835938 689.613281 382.464844 689.808594 372.25 688.390625 C 368.921875 687.875 366.132812 686.328125 363.203125 684.800781 C 360.15625 683.152344 356.335938 683.574219 352.925781 683.277344 C 345.84375 682.917969 338.777344 680.226562 332.878906 676.328125 C 326.738281 672.535156 320.691406 668.722656 314.898438 664.394531 C 310.523438 667.058594 306.511719 670.207031 302 672.648438 C 296.136719 675.847656 290.699219 679.402344 284.484375 681.910156 C 279.742188 683.839844 275.183594 686.183594 270.421875 688.03125 C 263.09375 690.878906 254.78125 690.832031 246.960938 691.441406 C 242.078125 691.523438 236.113281 691.800781 231.898438 688.964844 C 228.984375 687.273438 227.070312 684.25 223.457031 684.390625 C 215.019531 683.984375 206.488281 683.917969 198.089844 682.976562 C 191.527344 681.882812 184.753906 680.324219 178.765625 677.34375 C 172.542969 673.832031 166.632812 669.617188 161.101562 665.109375 C 154.25 668.425781 147.769531 672.742188 141.125 676.433594 C 136.988281 678.601562 132.75 680.695312 128.515625 682.679688 C 122.140625 685.660156 115.628906 687.097656 108.8125 688.636719 C 103.945312 689.6875 99.351562 690.695312 94.335938 690.265625 C 90.617188 689.929688 86.980469 688.699219 84.824219 685.453125 C 88.777344 685.441406 92.695312 686.03125 96.476562 685.449219 C 102.15625 684.660156 107.84375 682.5 113.429688 680.933594 C 117.429688 679.808594 121.085938 678.28125 124.707031 676.25 C 135.386719 670.378906 145.945312 664.191406 156.007812 657.316406 C 158.304688 655.695312 161.222656 655.324219 163.675781 656.835938 C 166.621094 658.722656 169.011719 661.382812 171.941406 663.339844 C 175.5625 665.753906 179.234375 668.226562 183.175781 670.066406 C 189.726562 672.882812 196.949219 674.417969 204.007812 675.238281 C 212.070312 675.9375 220.179688 676.023438 228.238281 676.617188 C 231.082031 676.707031 232.84375 679.199219 235.039062 680.6875 C 237.839844 682.957031 242.199219 682.617188 245.605469 682.597656 C 252.257812 682.140625 259.480469 681.992188 265.917969 680.203125 C 270.640625 678.914062 274.480469 676.519531 279.171875 674.636719 C 283.039062 673.085938 286.796875 671.332031 290.386719 669.203125 C 296.300781 665.691406 302.15625 663.023438 307.511719 658.636719 C 309.503906 657.15625 311.753906 655.058594 314.222656 654.53125 C 316.894531 654.09375 318.527344 656.027344 320.4375 657.523438 C 325.410156 661.898438 330.839844 664.664062 336.421875 668.414062 C 341.898438 672.128906 348.199219 674.757812 354.84375 675.136719 C 357.914062 675.363281 361.160156 674.472656 364.160156 675.042969 C 367.800781 676.210938 370.507812 679.011719 374.488281 679.722656 C 379.347656 680.515625 384.300781 680.3125 389.167969 679.785156 C 393.21875 679.335938 397.359375 679.210938 401.371094 678.464844 C 406.035156 677.570312 410.148438 674.78125 414.570312 672.898438 C 418.769531 671.109375 422.921875 669.503906 426.671875 666.820312 C 430.453125 664.324219 434.253906 660.539062 438.601562 659.179688 C 441.675781 658.167969 444.769531 660.664062 447.234375 662.226562 C 452.917969 666.328125 458.488281 670.503906 464.65625 673.878906 C 468.980469 676.285156 474.074219 677.496094 478.851562 678.730469 C 486.875 680.859375 495.703125 679.839844 503.917969 679.097656 C 508.0625 678.726562 511.441406 676.171875 515.460938 675.652344 C 518.164062 675.632812 520.933594 676.921875 523.542969 677.5625 C 528.785156 679.003906 534.890625 679.023438 539.410156 675.605469 C 542.503906 673.457031 544.585938 669.726562 547.882812 668.015625 C 551.058594 666.824219 554.261719 668.199219 557.074219 669.667969 C 563.980469 673.117188 571.589844 675.269531 579.214844 676.386719 C 585.90625 677.261719 593.039062 676.855469 599.8125 678.074219 C 605.3125 679.058594 610.902344 679.234375 616.425781 678.285156 C 621.976562 677.527344 626.734375 675.445312 632.078125 673.835938 C 637.191406 672.261719 640.5 668.972656 644.910156 666.175781 C 648.574219 663.753906 652.558594 661.890625 656.851562 660.925781 C 661.160156 659.855469 666.070312 660.398438 670.492188 660.648438 Z M 670.492188 660.648438 " fill-opacity="1" fill-rule="nonzero"/></g><path fill="#3bb4d7" d="M 253.496094 643.65625 C 252.898438 644.679688 252.371094 645.929688 251.480469 646.722656 C 248.488281 648.960938 245.179688 650.460938 241.375 650.230469 C 241.875 648.699219 241.859375 647.296875 243.378906 646.394531 C 246.367188 644.527344 249.882812 642.703125 253.496094 643.65625 Z M 253.496094 643.65625 " fill-opacity="1" fill-rule="nonzero"/></svg>